<svg xmlns="http://www.w3.org/2000/svg" width="54.478" height="52.934" viewBox="0 0 54.478 52.934">
  <g id="Environmental_Sustainability" data-name="Environmental Sustainability" transform="translate(-355.336 -364.946)">
    <path id="Path_8215" data-name="Path 8215" d="M630.2,786.1a18.219,18.219,0,0,0-5.9,8.6c-1.575,5.31-8.274,22.421-29.614,15.658a2.342,2.342,0,0,0-2.169.409,13.844,13.844,0,0,0-4.977,8.152.559.559,0,0,1-.692.43,2.173,2.173,0,0,1-1.49-1.148.563.563,0,0,1,.036-.534,84.87,84.87,0,0,1,5.715-7.86,90.149,90.149,0,0,1,8.7-9.322c5.161-4.765,11.482-9.324,18.626-11.907-.336.087-8.637,2.331-18.281,9.516a69.006,69.006,0,0,0-9.357,8.4,30.439,30.439,0,0,1,1.262-8.112v0c.191-.648.414-1.312.668-1.978a19.3,19.3,0,0,1,5.279-7.822,15.989,15.989,0,0,1,7.09-3.484,51.03,51.03,0,0,1,8.539-1.143A43.232,43.232,0,0,1,630.2,786.1Z" transform="translate(-220.383 -401.486)" fill="#ef4c00"/>
    <path id="Path_8216" data-name="Path 8216" d="M1129.47,497.962l.013-.011a.091.091,0,0,1,.015-.013" transform="translate(-741.864 -127.449)" fill="#ef4c00"/>
    <path id="Path_8217" data-name="Path 8217" d="M842.437,836.828a0,0,0,0,0,0,0" transform="translate(-466.794 -452.211)" fill="#ef4c00"/>
    <path id="Path_8218" data-name="Path 8218" d="M741.743,373.465a25.647,25.647,0,0,1-.836,9,51.029,51.029,0,0,0-8.539,1.143,15.988,15.988,0,0,0-7.09,3.484,14.18,14.18,0,0,0-.976-1.355,47.665,47.665,0,0,1,10.957-15.227.04.04,0,0,1-.011.007,50.37,50.37,0,0,0-11.952,14.1c-.067-.069-.136-.14-.207-.209a45.4,45.4,0,0,0-4.977-4.225,13.556,13.556,0,0,1,5.7-8.3c10.272-6.914,19.785-6.932,19.889-6.932A15.278,15.278,0,0,0,741.743,373.465Z" transform="translate(-347.654 0)" fill="#ef4c00"/>
    <path id="Path_8219" data-name="Path 8219" d="M1264.24,785.321c-.009.036-.02.071-.031.107" transform="translate(-870.986 -402.851)" fill="#ef4c00"/>
    <path id="Path_8220" data-name="Path 8220" d="M717.7,730.459c-.005.025-.013.053-.018.078" transform="translate(-347.237 -350.276)" fill="#ef4c00"/>
    <line id="Line_29" data-name="Line 29" y2="0.004" transform="translate(374.548 390.597)" fill="#fff"/>
    <path id="Path_8221" data-name="Path 8221" d="M1129.47,497.879l.013-.011a.09.09,0,0,1,.015-.013s0,0,.007,0" transform="translate(-741.864 -127.365)" fill="#ef4c00"/>
    <path id="Path_8222" data-name="Path 8222" d="M763.39,1083.947s0,0,0,0" transform="translate(-391.042 -689.025)" fill="#ef4c00"/>
    <line id="Line_30" data-name="Line 30" y1="0.004" transform="translate(379.427 398.998)" fill="#fff"/>
    <path id="Path_8223" data-name="Path 8223" d="M379.772,588.281a21.141,21.141,0,0,1-.345,2.391,90.153,90.153,0,0,0-8.7,9.322c-18.661-5.17-15.693-21.006-14.387-25.721a16.322,16.322,0,0,0-.4-9.315,39.214,39.214,0,0,1,14.506,6.884.119.119,0,0,1,.018.015,45.407,45.407,0,0,1,4.977,4.225c.071.069.14.14.207.209.363.369.7.743,1.006,1.124a14.18,14.18,0,0,1,.975,1.355,19.3,19.3,0,0,0-5.279,7.822,51.611,51.611,0,0,0-8.666-14.187,49.163,49.163,0,0,1,8,16.165v0a30.44,30.44,0,0,0-1.262,8.112A69.018,69.018,0,0,1,379.772,588.281Z" transform="translate(0 -191.674)" fill="#ef4c00"/>
    <line id="Line_31" data-name="Line 31" y1="0.002" transform="translate(377.625 387.096)" fill="#fff"/>
    <path id="Path_8224" data-name="Path 8224" d="M555.321,743.452l-.007-.007" transform="translate(-191.641 -362.721)" fill="#ef4c00"/>
  </g>
</svg>
