<svg xmlns="http://www.w3.org/2000/svg" width="62.531" height="51.88" viewBox="0 0 62.531 51.88">
  <path id="Healthy_Diet" data-name="Healthy Diet" d="M7.317,3H17.725A15.514,15.514,0,1,0,48.753,3h10.4a6.517,6.517,0,0,1,4.131,1.633,2.848,2.848,0,0,1,1.135,2.923L54.05,49.071a10.571,10.571,0,0,1-2.089,4.354,3.842,3.842,0,0,1-3.177,1.451h-31.1a3.842,3.842,0,0,1-3.177-1.451,10.571,10.571,0,0,1-2.089-4.354L2.051,7.552a2.837,2.837,0,0,1,1.14-2.923A6.52,6.52,0,0,1,7.317,3ZM22.96,3h5.1a5.28,5.28,0,0,0,2.187,4.281,5.292,5.292,0,0,0,5.64.223A5.287,5.287,0,0,0,38.417,3H43.5a10.289,10.289,0,0,1-4.96,8.962,10.341,10.341,0,0,1-11.284-.435A10.286,10.286,0,0,1,22.96,3Z" transform="translate(-1.968 -2.996)" fill="#ef4c00"/>
</svg>
