<svg xmlns="http://www.w3.org/2000/svg" width="62.601" height="52.934" viewBox="0 0 62.601 52.934">
  <path id="Organic_Certification" data-name="Organic Certification" d="M60.235,41.789a7.4,7.4,0,1,1-7.4-7.4,7.4,7.4,0,0,1,7.4,7.4Zm-12.009,9.7v7.747a1.116,1.116,0,0,0,1.658.977l2.137-1.183a1.674,1.674,0,0,1,1.622,0l2.135,1.183a1.116,1.116,0,0,0,1.657-.977V51.49A10.617,10.617,0,0,1,48.226,51.49ZM66.561,8.536V51.345a1.116,1.116,0,0,1-1.116,1.116H60.778V49a10.75,10.75,0,1,0-15.9,0v3.46H5.076A1.116,1.116,0,0,1,3.96,51.345V8.536A1.116,1.116,0,0,1,5.076,7.42H65.444A1.116,1.116,0,0,1,66.561,8.536ZM23.372,16.428A1.672,1.672,0,0,0,25.046,18.1H45.474a1.674,1.674,0,0,0,0-3.349H25.046a1.672,1.672,0,0,0-1.674,1.674Zm15.17,22.817a1.672,1.672,0,0,0-1.674-1.674H11.852a1.674,1.674,0,1,0,0,3.349H36.868a1.672,1.672,0,0,0,1.674-1.674Zm2.288-7.6a1.672,1.672,0,0,0-1.674-1.674h-27.3a1.674,1.674,0,0,0,0,3.349h27.3a1.672,1.672,0,0,0,1.674-1.674ZM60.343,24.03a1.679,1.679,0,0,0-1.674-1.674H11.852a1.674,1.674,0,0,0,0,3.349H58.669a1.672,1.672,0,0,0,1.674-1.674Z" transform="translate(-3.96 -7.42)" fill="#ef4c00"/>
</svg>
