<svg xmlns="http://www.w3.org/2000/svg" xmlns:xlink="http://www.w3.org/1999/xlink" width="20.473" height="20.207" viewBox="0 0 20.473 20.207">
  <defs>
    <linearGradient id="linear-gradient" x1="0.5" x2="0.5" y2="1" gradientUnits="objectBoundingBox">
      <stop offset="0.063" stop-color="#fff"/>
      <stop offset="1" stop-color="#fff"/>
    </linearGradient>
  </defs>
  <path id="Instagram" d="M10.233,4.919A5.185,5.185,0,1,0,15.486,10.1,5.211,5.211,0,0,0,10.233,4.919Zm0,8.553A3.37,3.37,0,1,1,13.647,10.1,3.4,3.4,0,0,1,10.233,13.473ZM15.7,3.5A1.211,1.211,0,1,0,16.927,4.71a1.2,1.2,0,0,0-.093-.464,1.208,1.208,0,0,0-.266-.393,1.226,1.226,0,0,0-.4-.262A1.239,1.239,0,0,0,15.7,3.5Zm4.771,6.6c0-1.4.013-2.778-.067-4.171A5.965,5.965,0,0,0,18.753,1.7,6.125,6.125,0,0,0,14.461.066C13.048-.012,11.647,0,10.236,0S7.422-.012,6.011.066A6.132,6.132,0,0,0,1.719,1.7,5.959,5.959,0,0,0,.067,5.933C-.012,7.328,0,8.711,0,10.1s-.013,2.778.067,4.171A5.965,5.965,0,0,0,1.719,18.51a6.125,6.125,0,0,0,4.292,1.63c1.414.078,2.814.066,4.225.066s2.814.013,4.225-.066a6.132,6.132,0,0,0,4.292-1.63A5.959,5.959,0,0,0,20.4,14.274c.082-1.393.067-2.775.067-4.171Zm-2.253,5.96a3.209,3.209,0,0,1-.773,1.158,3.28,3.28,0,0,1-1.173.763c-1.347.528-4.545.409-6.038.409s-4.694.119-6.041-.407a3.258,3.258,0,0,1-1.173-.763,3.231,3.231,0,0,1-.773-1.158c-.533-1.332-.412-4.489-.412-5.963s-.12-4.633.412-5.963A3.209,3.209,0,0,1,3.02,2.983,3.314,3.314,0,0,1,4.193,2.22c1.347-.526,4.548-.407,6.041-.407s4.694-.119,6.041.407A3.471,3.471,0,0,1,18.22,4.141c.533,1.33.412,4.489.412,5.963S18.753,14.734,18.218,16.064Z" fill="url(#linear-gradient)"/>
</svg>
